<?xml version="1.0" standalone="no"?>
<!DOCTYPE svg PUBLIC "-//W3C//DTD SVG 20010904//EN"
 "http://www.w3.org/TR/2001/REC-SVG-20010904/DTD/svg10.dtd">
<svg version="1.0" xmlns="http://www.w3.org/2000/svg"
 width="1100.000000pt" height="1100.000000pt" viewBox="0 0 1100.000000 1100.000000"
 preserveAspectRatio="xMidYMid meet">
<metadata>
Created by potrace 1.14, written by Peter Selinger 2001-2017
</metadata>
<g transform="translate(0.000000,1100.000000) scale(0.100000,-0.100000)"
fill="#000000" stroke="none">
<path d="M449 10981 c-211 -57 -375 -222 -430 -436 -18 -67 -19 -164 -18
-2045 0 -1921 1 -1977 20 -2049 55 -212 216 -374 429 -432 61 -17 179 -18
2060 -16 1097 2 2011 6 2030 11 106 25 245 113 320 203 58 70 92 136 128 248
4 11 8 916 9 2010 3 2191 7 2049 -58 2185 -31 63 -93 148 -134 181 -11 10 -33
29 -50 43 -16 14 -34 26 -38 26 -5 0 -21 8 -35 19 -24 16 -74 35 -153 59 -13
4 -922 8 -2019 8 -1874 2 -1999 1 -2061 -15z"/>
<path d="M6434 8476 c-71 -23 -180 -79 -219 -113 -79 -70 -145 -170 -189 -283
-21 -54 -21 -68 -24 -805 -2 -732 -2 -752 19 -825 48 -175 155 -307 318 -390
111 -56 77 -54 866 -58 533 -3 749 0 800 8 184 31 356 163 435 332 61 130 60
121 57 938 -2 731 -3 746 -23 800 -83 216 -224 348 -431 400 -74 20 -109 20
-808 19 -727 -1 -730 -1 -801 -23z"/>
<path d="M445 4978 c-44 -11 -82 -23 -85 -27 -3 -3 -25 -16 -50 -29 -101 -50
-197 -152 -249 -262 -65 -140 -61 13 -60 -2160 0 -1921 1 -1977 20 -2049 56
-215 220 -377 439 -435 84 -22 3974 -23 4068 -1 237 56 400 220 460 462 4 15
7 928 7 2028 l0 2000 -22 70 c-27 85 -84 181 -143 243 -49 50 -169 132 -194
132 -8 0 -17 4 -20 9 -3 5 -23 12 -43 16 -21 5 -45 11 -53 14 -8 3 -910 6
-2005 8 -1982 2 -1990 2 -2070 -19z"/>
<path d="M6455 4979 c-38 -10 -74 -20 -80 -22 -5 -2 -30 -14 -55 -26 -107 -56
-203 -155 -255 -266 -69 -143 -64 15 -64 -2165 0 -1921 1 -1977 20 -2049 52
-199 199 -356 399 -424 l65 -22 1995 -3 c1992 -2 1995 -2 2070 19 219 60 375
220 437 446 4 15 9 923 10 2016 3 1781 1 1995 -13 2050 -18 71 -73 197 -85
197 -5 0 -9 5 -9 10 0 11 -41 61 -80 96 -55 50 -85 74 -93 74 -5 0 -21 8 -35
19 -24 16 -74 35 -153 59 -13 4 -919 8 -2014 9 -1946 2 -1992 1 -2060 -18z"/>
</g>
</svg>
