<?xml version="1.0" standalone="no"?>
<!DOCTYPE svg PUBLIC "-//W3C//DTD SVG 20010904//EN"
 "http://www.w3.org/TR/2001/REC-SVG-20010904/DTD/svg10.dtd">
<svg version="1.0" xmlns="http://www.w3.org/2000/svg"
 width="1100.000000pt" height="1100.000000pt" viewBox="0 0 1100.000000 1100.000000"
 preserveAspectRatio="xMidYMid meet">
<metadata>
Created by potrace 1.14, written by Peter Selinger 2001-2017
</metadata>
<g transform="translate(0.000000,1100.000000) scale(0.100000,-0.100000)"
fill="#000000" stroke="none">
<path d="M292 10985 c-117 -36 -202 -110 -254 -220 l-33 -70 -2 -2175 c-2
-1558 0 -2186 8 -2215 28 -102 106 -205 193 -254 95 -54 -22 -51 2306 -51
1892 0 2160 2 2200 15 75 26 92 35 153 86 51 43 91 103 116 175 20 59 20 73
21 2220 0 1949 -2 2166 -16 2214 -34 114 -119 210 -231 259 l-58 26 -2180 2
c-1801 1 -2187 -1 -2223 -12z"/>
<path d="M6267 8476 c-115 -42 -206 -137 -247 -254 -18 -55 -19 -91 -20 -968
0 -982 -1 -958 52 -1052 34 -60 129 -144 194 -172 l59 -25 919 -3 c1013 -2
990 -4 1088 59 65 42 115 100 152 178 l31 66 2 932 3 933 -22 57 c-47 128
-129 209 -253 252 -59 20 -78 20 -980 20 -916 -1 -920 -1 -978 -23z"/>
<path d="M276 4979 c-112 -38 -187 -107 -239 -217 l-32 -67 -2 -2175 c-2
-1548 0 -2187 8 -2215 38 -139 144 -249 279 -289 49 -14 260 -16 2224 -13
1194 1 2182 5 2195 9 54 16 129 63 171 108 59 62 62 66 90 130 l25 55 2 2181
c3 2420 9 2218 -62 2329 -42 66 -95 111 -175 149 l-65 31 -2180 2 c-2170 2
-2180 2 -2239 -18z"/>
<path d="M6329 4996 c-2 -3 -16 -7 -30 -9 -98 -18 -224 -128 -269 -233 l-25
-59 -3 -2160 c-1 -1369 1 -2178 7 -2212 23 -124 99 -221 219 -280 l76 -38
2180 0 c1200 0 2195 3 2212 6 32 7 98 35 123 54 53 37 129 129 151 181 l25 59
2 2181 c3 2007 2 2184 -14 2230 -38 113 -121 205 -230 253 l-58 26 -2181 3
c-1199 1 -2183 0 -2185 -2z"/>
</g>
</svg>
